#N canvas 242 214 606 512 16;
#X obj -118 167 send myname;
#X text 34 133 send object that will send data to \; any receive named
"myname";
#X obj -120 246 receive myname;
#X symbolatom -120 281 15 0 0 0 - - -;
#X text 58 253 This receive will receive data sent \; to "myname";
#X msg -118 124 symbol hello;
#X obj -117 418 receive myname;
#X text 87 349 You can have multiple sends and \; receives in your
patch;
#X obj -118 374 send myname;
#X symbolatom -117 452 15 0 0 0 - - -;
#X msg -118 332 symbol hello-again;
#X obj 87 435 cnv 15 350 60 empty empty empty 20 12 0 14 -261234 -66577
0;
#X text 97 435 send and receive will act on any patch \; you have open
so be careful when chosing \; your names;
#X text -124 36 [send] is used to send control data to one or more
\; [receive] objects [send] and [receive] are given names \; as creation
arguments.;
#X text -122 3 SEND AND RECEIVE;
#X connect 2 0 3 0;
#X connect 5 0 0 0;
#X connect 6 0 9 0;
#X connect 10 0 8 0;
