#N canvas 157 59 452 557 16;
#X text 7 40 The [readsf~] object can be used to open and playback
\; soundfiles;
#X obj 23 350 readsf~;
#X obj 24 414 dac~;
#X obj 90 386 bng 20 250 50 0 empty empty empty 17 7 0 10 -262144 -258113
-1;
#X text 122 384 The bang will be triggered \; when the soundfiles finished.
;
#X obj 23 95 bng 15 250 50 0 empty empty empty 17 7 0 10 -262144 -1
-1;
#X msg 23 256 open \$1;
#X msg 45 289 start;
#X msg 68 317 stop;
#X text 123 287 send the message "start" or 1 to play;
#X text 123 315 send the message "stop" or 0 to stop;
#X text 121 255 [readsf~] wants to know the filename;
#X obj 23 128 openpanel;
#X text 122 125 [openpanel] is used to select the file \; from your
harddisk;
#X obj 23 177 symbol;
#X text 124 175 just like [float] stores a number \, \; [symbol] can
store a symbol \; (the soundfile name);
#X obj 24 467 cnv 15 400 60 empty empty empty 20 12 0 14 -261234 -66577
0;
#X text 26 469 When [readsf~] finished playback \, it will forget \;
about the soundfile. You have to send the open \; message again if
you want to play again!;
#X text 7 2 PLAYING SOUNDFILES;
#X connect 1 0 2 0;
#X connect 1 0 2 1;
#X connect 1 1 3 0;
#X connect 5 0 12 0;
#X connect 6 0 1 0;
#X connect 7 0 1 0;
#X connect 8 0 1 0;
#X connect 12 0 14 0;
#X connect 14 0 6 0;
