#N canvas 295 75 440 607 16;
#X obj 50 177 bng 15 50 50 0 empty empty empty 17 7 0 10 -262144 -1
-1;
#X obj 51 32 tgl 15 0 empty empty empty 17 7 0 10 -262144 -1 -1 1 1
;
#X floatatom 105 75 5 0 0 0 - - -;
#X obj 97 218 float;
#X obj 188 217 + 1;
#X floatatom 97 273 5 0 0 0 - - -;
#X obj 50 127 metro;
#X msg 264 193 12;
#X msg 265 234 string;
#X msg 318 192 bang;
#X obj 268 329 unpack f f;
#X obj 268 371 +;
#X floatatom 268 411 5 0 0 0 - - -;
#X obj 248 77 pack f f;
#X msg 248 24 1;
#X msg 325 22 2;
#X obj 248 127 print;
#X msg 268 287 1 2;
#X msg 111 375 set 1;
#X obj 113 537 hsl 128 15 0 1 0 0 empty empty empty -2 -8 0 10 -262144
-1 -1 12700 1;
#X msg 34 415 stop;
#X msg 150 408 0 500;
#X msg 170 443 1 500;
#X obj 110 497 line;
#X connect 1 0 6 0;
#X connect 2 0 6 1;
#X connect 3 0 4 0;
#X connect 3 0 5 0;
#X connect 4 0 3 1;
#X connect 6 0 0 0;
#X connect 6 0 3 0;
#X connect 10 0 11 0;
#X connect 10 1 11 1;
#X connect 11 0 12 0;
#X connect 13 0 16 0;
#X connect 14 0 13 0;
#X connect 15 0 13 1;
#X connect 17 0 10 0;
#X connect 18 0 23 0;
#X connect 20 0 23 0;
#X connect 21 0 23 0;
#X connect 22 0 23 0;
#X connect 23 0 19 0;
