#N canvas 361 223 604 351 16;
#X obj -40 195 adc~ 1;
#X obj 102 104 bng 15 250 50 0 empty empty record 20 7 0 10 -262144
-1 -1;
#X obj 255 74 inlet length;
#X msg 255 133 resize \$1;
#X obj 102 193 outlet~;
#X obj 309 287 outlet;
#X obj 102 122 bng 15 250 50 0 empty empty play 20 7 0 10 -262144 -1
-1;
#X obj 102 141 volume-control;
#X msg 255 38 2;
#X obj 255 10 loadbang;
#X obj 255 104 * 44100;
#X obj -48 -3 table \$0-recording;
#X obj 255 163 s \$0-recording;
#X obj -40 228 tabwrite~ \$0-recording;
#X obj 166 256 tabplay~ \$0-recording;
#X text 349 11 Emmit a bang whenever \; the patch is being \; opened
;
#X text 211 208 The \$0 will be replaced \; with a unique number.;
#X obj -46 41 inlet play;
#X connect 0 0 13 0;
#X connect 1 0 13 0;
#X connect 2 0 10 0;
#X connect 3 0 12 0;
#X connect 6 0 14 0;
#X connect 7 0 4 0;
#X connect 8 0 10 0;
#X connect 9 0 8 0;
#X connect 10 0 3 0;
#X connect 14 0 7 0;
#X connect 14 1 5 0;
#X connect 17 0 14 0;
#X coords 0 -1 1 1 140 85 2 100 100;
