#N canvas 1663 31 619 681 16;
#X obj 61 40 metro;
#X obj 260 177 float;
#X obj 326 176 + 1;
#X obj 67 437 osc~;
#X obj 68 633 dac~;
#X obj 65 355 mtof;
#X floatatom 65 393 10 0 0 0 - - -;
#X obj 60 -31 tgl 15 0 empty empty empty 17 7 0 10 -262144 -1 -1 1
1;
#X msg 107 -26 250;
#X msg 65 306 40;
#X msg 107 305 44;
#X text 372 175 restrict coounter from 1 to 10;
#X text 461 271 pick 10 midi notes;
#X text 258 225 map counter value to note;
#X msg 151 305 48;
#X msg 195 304 52;
#X msg 239 304 56;
#X msg 283 304 60;
#X msg 327 304 64;
#X msg 370 306 68;
#X msg 415 306 72;
#X msg 458 305 76;
#X obj 65 251 select 1 2 3 4 5 6 7 8 9 10;
#X msg 325 131 0;
#X text 369 129 reset;
#X obj 209 17 bng 15 250 50 0 empty empty empty 17 7 0 10 -262144 -1
-1;
#X floatatom 209 127 5 0 0 0 - - -;
#X obj 209 62 random 10;
#X obj 209 95 + 1;
#X obj 67 586 *~;
#X obj 134 563 line~;
#X obj 184 449 hsl 128 15 0 1 0 0 empty empty empty -2 -8 0 10 -262144
-1 -1 200 1;
#X obj 214 475 hsl 128 15 50 250 0 0 empty empty empty -2 -8 0 10 -262144
-1 -1 4400 1;
#X obj 181 533 pack f f;
#X obj 211 501 t b f;
#X text 329 453 volume;
#X text 351 481 duration;
#X text 274 500 This is used to trigger the list when the cold inlet
receives an input;
#X text 203 564 smoothly change the volume to avoid "clicks";
#X connect 0 0 27 0;
#X connect 1 0 2 0;
#X connect 2 0 1 1;
#X connect 3 0 29 0;
#X connect 5 0 6 0;
#X connect 5 0 3 0;
#X connect 7 0 0 0;
#X connect 8 0 0 1;
#X connect 9 0 5 0;
#X connect 10 0 5 0;
#X connect 14 0 5 0;
#X connect 15 0 5 0;
#X connect 16 0 5 0;
#X connect 17 0 5 0;
#X connect 18 0 5 0;
#X connect 19 0 5 0;
#X connect 20 0 5 0;
#X connect 21 0 5 0;
#X connect 22 0 9 0;
#X connect 22 1 10 0;
#X connect 22 2 14 0;
#X connect 22 3 15 0;
#X connect 22 4 16 0;
#X connect 22 5 17 0;
#X connect 22 6 18 0;
#X connect 22 7 19 0;
#X connect 22 8 20 0;
#X connect 22 9 21 0;
#X connect 22 9 23 0;
#X connect 23 0 1 1;
#X connect 25 0 27 0;
#X connect 26 0 22 0;
#X connect 27 0 28 0;
#X connect 28 0 26 0;
#X connect 29 0 4 0;
#X connect 29 0 4 1;
#X connect 30 0 29 1;
#X connect 31 0 33 0;
#X connect 32 0 34 0;
#X connect 33 0 30 0;
#X connect 34 0 33 0;
#X connect 34 1 33 1;
