#N canvas 1294 37 228 208 16;
#X obj -13 72 float;
#X obj 57 78 + 1;
#X obj -12 105 t f f;
#X msg 111 49 1;
#X obj -14 7 inlet;
#X obj 114 -4 inlet;
#X obj -12 144 outlet;
#X obj 104 126 nbx 5 30 -1e+37 1e+37 0 0 \$0-sendhide \$0-receivehide
empty 0 -8 0 14 -228856 -258113 -258113 0 256;
#X obj 105 103 bng 20 250 50 0 empty empty Reset 25 10 0 14 -258113
-262144 -258113;
#X connect 0 0 2 0;
#X connect 1 0 0 1;
#X connect 2 0 6 0;
#X connect 2 0 7 0;
#X connect 2 1 1 0;
#X connect 3 0 0 1;
#X connect 4 0 0 0;
#X connect 5 0 3 0;
#X connect 8 0 3 0;
#X coords 0 -1 1 1 85 60 2 100 100;
