#N canvas 0 22 450 300 10;
#X obj 40 139 f;
#X obj 14 189 max;
#X obj 13 110 t f b;
#X msg 71 109 0;
#X obj 13 62 inlet;
#X obj 71 63 inlet;
#X obj 15 233 outlet;
#X obj 107 107 bng 15 250 50 0 empty empty Reset 17 7 0 10 -262144
-1 -1;
#X floatatom 107 128 7 0 0 0 - - -;
#X connect 0 0 1 1;
#X connect 1 0 0 1;
#X connect 1 0 6 0;
#X connect 1 0 8 0;
#X connect 2 0 1 0;
#X connect 2 1 0 0;
#X connect 3 0 0 1;
#X connect 4 0 2 0;
#X connect 5 0 3 0;
#X connect 7 0 3 0;
#X coords 0 -1 1 1 60 50 1 100 100;
