#N canvas 282 137 603 401 10;
#X obj 28 143 adc~;
#X obj 29 202 tabwrite~ array1;
#X obj 262 20 table array1;
#X obj 154 49 bng 15 250 50 0 empty empty empty 17 7 0 10 -262144 -1
-1;
#X msg 82 165 start;
#X msg 138 176 stop;
#X msg 257 225 resize \$1;
#X obj 257 252 s array1;
#X msg 256 155 2;
#X obj 154 79 del;
#X obj 203 152 * 1000;
#X obj 257 196 * 44100;
#X obj 33 253 tabread~;
#X connect 0 0 1 0;
#X connect 0 1 1 0;
#X connect 3 0 9 0;
#X connect 3 0 4 0;
#X connect 4 0 1 0;
#X connect 5 0 1 0;
#X connect 6 0 7 0;
#X connect 8 0 10 0;
#X connect 8 0 11 0;
#X connect 9 0 5 0;
#X connect 10 0 9 1;
#X connect 11 0 6 0;
