#N canvas 191 79 261 247 16;
#X obj 56 174 dac~;
#X obj 174 132 bng 20 250 50 0 empty empty empty 17 7 0 10 -262144
-258113 -1;
#N canvas 498 84 586 537 soundfile-player 0;
#X obj 13 208 readsf~;
#X obj 13 56 openpanel;
#X obj 13 125 symbol;
#X msg 13 164 open \$1 \, 1;
#X obj 13 15 inlet open;
#X obj 174 56 inlet start;
#X obj 13 317 outlet~;
#X obj 80 249 outlet;
#X obj 104 122 bng 15 250 50 0 empty empty play_again 20 7 0 10 -262144
-1 -1;
#X obj 106 140 hsl 115 15 0 1 0 0 empty empty empty -2 -8 0 10 -262144
-1 -1 11400 1;
#X obj 166 261 line~;
#X msg 166 224 \$1 50;
#X obj 13 284 *~;
#X obj 104 104 bng 15 250 50 0 empty empty open 20 7 0 10 -262144 -1
-1;
#X connect 0 0 12 0;
#X connect 0 1 7 0;
#X connect 1 0 2 0;
#X connect 2 0 3 0;
#X connect 3 0 0 0;
#X connect 4 0 1 0;
#X connect 5 0 2 0;
#X connect 8 0 2 0;
#X connect 9 0 11 0;
#X connect 10 0 12 1;
#X connect 11 0 10 0;
#X connect 12 0 6 0;
#X connect 13 0 1 0;
#X coords 0 -1 1 1 125 60 2 100 100;
#X restore 56 53 pd soundfile-player;
#X connect 2 0 0 0;
#X connect 2 0 0 1;
#X connect 2 1 1 0;
