#N canvas 1777 22 525 649 16;
#X obj 34 417 osc~;
#X obj 35 596 dac~;
#X obj 33 335 mtof;
#X floatatom 33 373 10 0 0 0 - - -;
#X obj 33 52 tgl 15 0 empty empty empty 17 7 0 10 -262144 -1 -1 1 1
;
#X text 203 229 map counter value to note;
#X obj 33 231 select 1 2 3 4 5;
#X text 251 282 pick 5 midi notes;
#X msg 33 286 48;
#X msg 119 285 56;
#X msg 75 285 52;
#X msg 163 284 62;
#X msg 207 284 64;
#X obj 33 94 metro 250;
#N canvas 1314 253 390 238 volume 0;
#X obj 200 2 cnv 15 140 56 empty empty empty 20 12 0 14 -32734 -66577
0;
#X obj 57 143 *~;
#X obj 84 109 line~;
#X msg 83 79 \$1 250;
#X obj 57 186 outlet~;
#X obj 56 5 inlet~ audio;
#X obj 206 24 hsl 128 30 0 1 0 0 empty empty Volume -2 -8 0 12 -32764
-262144 -262144 0 1;
#X connect 1 0 4 0;
#X connect 2 0 1 1;
#X connect 3 0 2 0;
#X connect 5 0 1 0;
#X connect 6 0 3 0;
#X coords 0 -1 1 1 140 60 1 200 0;
#X restore 35 522 pd volume;
#X obj 33 149 customcounter;
#X connect 0 0 14 0;
#X connect 2 0 3 0;
#X connect 2 0 0 0;
#X connect 4 0 13 0;
#X connect 6 0 8 0;
#X connect 6 1 10 0;
#X connect 6 2 9 0;
#X connect 6 3 11 0;
#X connect 6 4 12 0;
#X connect 6 4 15 1;
#X connect 8 0 2 0;
#X connect 9 0 2 0;
#X connect 10 0 2 0;
#X connect 11 0 2 0;
#X connect 12 0 2 0;
#X connect 13 0 15 0;
#X connect 14 0 1 0;
#X connect 14 0 1 1;
#X connect 15 0 6 0;
