#N canvas 0 22 594 650 16;
#X obj 25 154 cnv 15 70 30 empty empty empty 20 12 0 14 -259078 -66577
0;
#X obj 33 128 float;
#X obj 103 134 + 1;
#X obj 35 418 osc~;
#X obj 36 597 dac~;
#X obj 34 336 mtof;
#X floatatom 34 374 10 0 0 0 - - -;
#X obj 33 52 tgl 15 0 empty empty empty 17 7 0 10 -262144 -1 -1 0 1
;
#X text 204 230 map counter value to note;
#X obj 35 550 *~;
#X obj 102 527 line~;
#X obj 105 463 hsl 128 15 0 1 0 0 empty empty empty -2 -8 0 10 -262144
-1 -1 0 1;
#X text 250 456 volume;
#X text 166 526 smoothly change the volume to avoid "clicks";
#X msg 102 490 \$1 250;
#X obj 34 232 select 1 2 3 4 5;
#X text 252 283 pick 5 midi notes;
#X obj 33 158 t f f;
#X msg 34 287 48;
#X msg 120 286 56;
#X msg 76 286 52;
#X msg 164 285 62;
#X msg 208 285 64;
#X floatatom 34 192 5 0 0 0 - - -;
#X msg 157 105 1;
#X text 197 105 reset on 5;
#X obj 33 94 metro 250;
#X text 98 159 *always* use a trigger when execution order matters!
;
#X connect 1 0 17 0;
#X connect 1 0 23 0;
#X connect 2 0 1 1;
#X connect 3 0 9 0;
#X connect 5 0 6 0;
#X connect 5 0 3 0;
#X connect 7 0 26 0;
#X connect 9 0 4 0;
#X connect 9 0 4 1;
#X connect 10 0 9 1;
#X connect 11 0 14 0;
#X connect 14 0 10 0;
#X connect 15 0 18 0;
#X connect 15 1 20 0;
#X connect 15 2 19 0;
#X connect 15 3 21 0;
#X connect 15 4 22 0;
#X connect 15 4 24 0;
#X connect 17 0 15 0;
#X connect 17 1 2 0;
#X connect 18 0 5 0;
#X connect 19 0 5 0;
#X connect 20 0 5 0;
#X connect 21 0 5 0;
#X connect 22 0 5 0;
#X connect 24 0 1 1;
#X connect 26 0 1 0;
