#N canvas 1306 22 769 688 16;
#X obj 37 414 volume-control;
#X floatatom 170 135 5 0 0 0 - - -;
#X obj 170 34 bng 15 250 50 0 empty empty empty 17 7 0 10 -262144 -1
-1;
#X obj 170 101 t f f;
#X obj 318 379 bng 15 250 50 0 empty empty empty 17 7 0 10 -262144
-1 -1;
#X obj 318 427 spigot;
#X obj 375 403 tgl 15 0 empty empty empty 17 7 0 10 -262144 -1 -1 0
1;
#X text 393 426 using a [spigot] here \; to set looping on and off.
;
#X text 175 425 Master volume;
#X text 339 375 this is just to visualize;
#X text 191 30 this is just to visualize;
#X obj 35 231 audio-recorder;
#X obj 265 66 + 1;
#X obj 170 66 float;
#X msg 268 135 0;
#X obj 170 164 sel 0 1 2 3 4 5;
#X obj 37 619 dac~;
#X text 265 98 execution order \, use [trigger]!;
#X obj 182 231 audio-recorder;
#X obj 337 232 audio-recorder;
#X obj 485 231 audio-recorder;
#X obj 147 620 writesf~ 2;
#X obj 147 497 savepanel;
#X obj 147 476 bng 15 250 50 0 empty empty empty 17 7 0 10 -262144
-1 -1;
#X msg 178 558 start;
#X msg 207 585 stop;
#X text 254 555 start recording master;
#X text 261 583 stop recording master;
#X text 266 620 use [writesf~] to record sound without knowing the
duration;
#X msg 147 525 open \$1;
#X connect 0 0 16 0;
#X connect 0 0 16 1;
#X connect 0 0 21 0;
#X connect 0 0 21 1;
#X connect 1 0 15 0;
#X connect 2 0 13 0;
#X connect 3 0 1 0;
#X connect 3 1 12 0;
#X connect 4 0 5 0;
#X connect 5 0 2 0;
#X connect 6 0 5 1;
#X connect 11 0 0 0;
#X connect 11 1 4 0;
#X connect 12 0 13 1;
#X connect 13 0 3 0;
#X connect 14 0 13 1;
#X connect 15 0 11 0;
#X connect 15 1 18 0;
#X connect 15 2 18 0;
#X connect 15 3 19 0;
#X connect 15 4 20 0;
#X connect 15 5 14 0;
#X connect 15 5 20 0;
#X connect 18 0 0 0;
#X connect 18 1 4 0;
#X connect 19 0 0 0;
#X connect 19 1 4 0;
#X connect 20 0 0 0;
#X connect 20 1 4 0;
#X connect 22 0 29 0;
#X connect 23 0 22 0;
#X connect 24 0 21 0;
#X connect 25 0 21 0;
#X connect 29 0 21 0;
