#N canvas 0 22 724 680 16;
#X obj 179 64 metro;
#X obj 203 138 float;
#X obj 273 152 + 1;
#X obj 35 448 osc~;
#X obj 36 627 dac~;
#X obj 34 366 mtof;
#X floatatom 34 404 10 0 0 0 - - -;
#X obj 179 22 tgl 15 0 empty empty empty 17 7 0 10 -262144 -1 -1 1
1;
#X msg 226 27 250;
#X text 204 260 map counter value to note;
#X floatatom 34 204 5 0 0 0 - - -;
#X obj 34 172 + 1;
#X obj 35 580 *~;
#X obj 102 557 line~;
#X obj 105 493 hsl 128 15 0 1 0 0 empty empty empty -2 -8 0 10 -262144
-1 -1 12700 1;
#X text 250 486 volume;
#X text 171 558 smoothly change the volume to avoid "clicks";
#X msg 102 520 \$1 250;
#X obj 34 262 select 1 2 3 4 5;
#X text 252 312 pick 5 midi notes;
#X obj 203 168 t f f;
#X obj 34 139 random 5;
#X msg 34 317 48;
#X msg 120 316 56;
#X msg 76 316 52;
#X msg 164 315 62;
#X msg 208 315 64;
#X obj 285 416 random 10;
#X obj 285 450 / 10;
#X obj 105 602 hsl 128 15 0 1 0 0 empty empty empty -2 -8 0 10 -262144
-1 -1 12700 1;
#X floatatom 204 202 5 0 0 0 - - -;
#X obj 203 105 spigot;
#X obj 260 86 tgl 15 0 empty empty empty 17 7 0 10 -262144 -1 -1 -1
-1;
#X obj 34 108 spigot;
#X obj 91 89 tgl 15 0 empty empty empty 17 7 0 10 -262144 -1 -1 0 1
;
#X msg 367 118 1;
#X text 360 178;
#X text 282 80 turn on/off counter;
#X text 30 42 turn on/off \; random;
#X obj 285 384 spigot;
#X obj 342 363 tgl 15 0 empty empty empty 17 7 0 10 -262144 -1 -1 0
1;
#X text 363 355 turn on/off random volume;
#X text 407 118 reset on 5;
#X connect 0 0 31 0;
#X connect 0 0 33 0;
#X connect 0 0 39 0;
#X connect 1 0 20 0;
#X connect 1 0 30 0;
#X connect 2 0 1 1;
#X connect 3 0 12 0;
#X connect 5 0 6 0;
#X connect 5 0 3 0;
#X connect 7 0 0 0;
#X connect 8 0 0 1;
#X connect 10 0 18 0;
#X connect 11 0 10 0;
#X connect 12 0 4 0;
#X connect 12 0 4 1;
#X connect 13 0 12 1;
#X connect 14 0 17 0;
#X connect 17 0 13 0;
#X connect 17 0 29 0;
#X connect 18 0 22 0;
#X connect 18 1 24 0;
#X connect 18 2 23 0;
#X connect 18 3 25 0;
#X connect 18 4 26 0;
#X connect 18 4 35 0;
#X connect 20 0 18 0;
#X connect 20 1 2 0;
#X connect 21 0 11 0;
#X connect 22 0 5 0;
#X connect 23 0 5 0;
#X connect 24 0 5 0;
#X connect 25 0 5 0;
#X connect 26 0 5 0;
#X connect 27 0 28 0;
#X connect 28 0 17 0;
#X connect 31 0 1 0;
#X connect 32 0 31 1;
#X connect 33 0 21 0;
#X connect 34 0 33 1;
#X connect 35 0 1 1;
#X connect 39 0 27 0;
#X connect 40 0 39 1;
