#N canvas 0 22 617 526 16;
#X obj 27 482 dac~;
#N canvas 700 226 295 360 soundfile-player 0;
#X obj -17 208 readsf~;
#X obj -17 56 openpanel;
#X obj -17 125 symbol;
#X msg -17 164 open \$1 \, 1;
#X obj -17 15 inlet open;
#X obj 84 56 inlet start;
#X obj -17 317 outlet~;
#X obj 50 249 outlet;
#X obj 104 122 bng 15 250 50 0 empty empty play_again 20 7 0 10 -262144
-1 -1;
#X obj 104 104 bng 15 250 50 0 empty empty open 20 7 0 10 -262144 -1
-1;
#X obj 104 144 volume-control;
#X connect 0 0 10 0;
#X connect 0 1 7 0;
#X connect 1 0 2 0;
#X connect 2 0 3 0;
#X connect 3 0 0 0;
#X connect 4 0 1 0;
#X connect 5 0 2 0;
#X connect 8 0 2 0;
#X connect 9 0 1 0;
#X connect 10 0 6 0;
#X coords 0 -1 1 1 140 90 2 100 100;
#X restore 27 230 pd soundfile-player;
#X obj 27 404 volume-control;
#N canvas 700 226 295 360 soundfile-player 0;
#X obj -17 208 readsf~;
#X obj -17 56 openpanel;
#X obj -17 125 symbol;
#X msg -17 164 open \$1 \, 1;
#X obj -17 15 inlet open;
#X obj 84 56 inlet start;
#X obj -17 317 outlet~;
#X obj 50 249 outlet;
#X obj 104 122 bng 15 250 50 0 empty empty play_again 20 7 0 10 -262144
-1 -1;
#X obj 104 104 bng 15 250 50 0 empty empty open 20 7 0 10 -262144 -1
-1;
#X obj 104 144 volume-control;
#X connect 0 0 10 0;
#X connect 0 1 7 0;
#X connect 1 0 2 0;
#X connect 2 0 3 0;
#X connect 3 0 0 0;
#X connect 4 0 1 0;
#X connect 5 0 2 0;
#X connect 8 0 2 0;
#X connect 9 0 1 0;
#X connect 10 0 6 0;
#X coords 0 -1 1 1 140 90 2 100 100;
#X restore 175 230 pd soundfile-player;
#N canvas 700 226 295 360 soundfile-player 0;
#X obj -17 208 readsf~;
#X obj -17 56 openpanel;
#X obj -17 125 symbol;
#X msg -17 164 open \$1 \, 1;
#X obj -17 15 inlet open;
#X obj 84 56 inlet start;
#X obj -17 317 outlet~;
#X obj 50 249 outlet;
#X obj 104 122 bng 15 250 50 0 empty empty play_again 20 7 0 10 -262144
-1 -1;
#X obj 104 104 bng 15 250 50 0 empty empty open 20 7 0 10 -262144 -1
-1;
#X obj 104 144 volume-control;
#X connect 0 0 10 0;
#X connect 0 1 7 0;
#X connect 1 0 2 0;
#X connect 2 0 3 0;
#X connect 3 0 0 0;
#X connect 4 0 1 0;
#X connect 5 0 2 0;
#X connect 8 0 2 0;
#X connect 9 0 1 0;
#X connect 10 0 6 0;
#X coords 0 -1 1 1 140 90 2 100 100;
#X restore 323 230 pd soundfile-player;
#X obj 160 154 sel 1 2 3;
#X obj 255 56 - 1;
#X floatatom 160 125 5 0 0 0 - - -;
#X obj 160 24 bng 15 250 50 0 empty empty empty 17 7 0 10 -262144 -1
-1;
#X obj 160 56 float 3;
#X msg 258 125 3;
#X obj 160 91 t f f;
#X text 303 123 reset to 3 when it reaches 1;
#X obj 308 359 bng 15 250 50 0 empty empty empty 17 7 0 10 -262144
-1 -1;
#X obj 308 407 spigot;
#X obj 365 383 tgl 15 0 empty empty empty 17 7 0 10 -262144 -1 -1 0
1;
#X text 383 406 using a [spigot] here \; to set looping on and off.
;
#X text 255 88 execution order \, use [trigger]!;
#X text 165 415 Master volume;
#X text 329 355 this is just to visualize;
#X text 181 20 this is just to visualize;
#X connect 1 0 2 0;
#X connect 1 1 13 0;
#X connect 2 0 0 0;
#X connect 2 0 0 1;
#X connect 3 0 2 0;
#X connect 3 1 13 0;
#X connect 4 0 2 0;
#X connect 4 1 13 0;
#X connect 5 0 1 1;
#X connect 5 0 10 0;
#X connect 5 1 3 1;
#X connect 5 2 4 1;
#X connect 6 0 9 1;
#X connect 7 0 5 0;
#X connect 8 0 9 0;
#X connect 9 0 11 0;
#X connect 10 0 9 1;
#X connect 11 0 7 0;
#X connect 11 1 6 0;
#X connect 13 0 14 0;
#X connect 14 0 8 0;
#X connect 15 0 14 1;
