#N canvas 0 22 769 571 16;
#X obj 37 414 volume-control;
#X floatatom 170 135 5 0 0 0 - - -;
#X obj 170 34 bng 15 250 50 0 empty empty empty 17 7 0 10 -262144 -1
-1;
#X obj 170 101 t f f;
#X text 313 133 reset to 3 when it reaches 1;
#X obj 318 379 bng 15 250 50 0 empty empty empty 17 7 0 10 -262144
-1 -1;
#X obj 318 427 spigot;
#X obj 375 403 tgl 15 0 empty empty empty 17 7 0 10 -262144 -1 -1 0
1;
#X text 393 426 using a [spigot] here \; to set looping on and off.
;
#X text 265 98 execution order \, use [trigger]!;
#X text 175 425 Master volume;
#X text 339 375 this is just to visualize;
#X text 191 30 this is just to visualize;
#X obj 35 231 audio-recorder;
#X obj 184 232 audio-recorder;
#X obj 337 232 audio-recorder;
#X obj 485 231 audio-recorder;
#X obj 265 66 + 1;
#X obj 170 66 float;
#X msg 268 135 0;
#X obj 170 164 sel 0 1 2 3 4 5;
#X obj 37 489 output~;
#X connect 0 0 21 0;
#X connect 0 0 21 1;
#X connect 1 0 20 0;
#X connect 2 0 18 0;
#X connect 3 0 1 0;
#X connect 3 1 17 0;
#X connect 5 0 6 0;
#X connect 6 0 2 0;
#X connect 7 0 6 1;
#X connect 13 0 0 0;
#X connect 13 1 5 0;
#X connect 14 0 0 0;
#X connect 14 1 5 0;
#X connect 15 0 0 0;
#X connect 15 1 5 0;
#X connect 16 0 0 0;
#X connect 16 1 5 0;
#X connect 17 0 18 1;
#X connect 18 0 3 0;
#X connect 19 0 18 1;
#X connect 20 0 13 0;
#X connect 20 1 14 0;
#X connect 20 2 14 0;
#X connect 20 3 15 0;
#X connect 20 4 16 0;
#X connect 20 5 16 0;
#X connect 20 5 19 0;
