#N canvas 438 134 292 265 16;
#X obj 66 184 dac~;
#X obj 200 184 bng 20 250 50 0 empty empty empty 17 7 0 10 -262144
-258113 -1;
#N canvas 700 226 295 360 soundfile-player 0;
#X obj -17 208 readsf~;
#X obj -17 56 openpanel;
#X obj -17 125 symbol;
#X msg -17 164 open \$1 \, 1;
#X obj -17 15 inlet open;
#X obj 84 56 inlet start;
#X obj -17 317 outlet~;
#X obj 50 249 outlet;
#X obj 104 122 bng 15 250 50 0 empty empty play_again 20 7 0 10 -262144
-1 -1;
#X obj 104 104 bng 15 250 50 0 empty empty open 20 7 0 10 -262144 -1
-1;
#X obj 104 144 volume-control;
#X connect 0 0 10 0;
#X connect 0 1 7 0;
#X connect 1 0 2 0;
#X connect 2 0 3 0;
#X connect 3 0 0 0;
#X connect 4 0 1 0;
#X connect 5 0 2 0;
#X connect 8 0 2 0;
#X connect 9 0 1 0;
#X connect 10 0 6 0;
#X coords 0 -1 1 1 140 90 2 100 100;
#X restore 67 60 pd soundfile-player;
#X connect 2 0 0 0;
#X connect 2 0 0 1;
#X connect 2 1 1 0;
