#N canvas 1356 262 450 300 16;
#X text 12 10 TASK 7;
#X text 14 40 Create a GUI for your subpatch using the graph \; on
parent feature. Also create a volume slider \; for the [readsf~] output.
;
#X obj 18 169 *~;
#X obj 73 170 line~;
#X msg 150 171 \$1 250;
#X obj 246 176 hsl 128 15 0 127 0 0 empty empty [hsl] -4 -15 0 12 -262144
-1 -1 0 1;
#X text 18 128 you might need those:;
