#N canvas 133 41 319 343 16;
#X obj 8 17 hsl 115 15 0 1 0 0 \$0-sendhide \$0-receivehide Volume
-2 -8 0 10 -262144 -1 -1 0 1;
#X obj 5 86 line~;
#X msg 5 49 \$1 50;
#X obj -22 149 *~;
#X obj -22 117 inlet~;
#X obj -22 183 outlet~;
#X connect 0 0 2 0;
#X connect 1 0 3 1;
#X connect 2 0 1 0;
#X connect 3 0 5 0;
#X connect 4 0 3 0;
#X coords 0 -1 1 1 130 40 2 0 0;
