#N canvas 395 86 624 770 10;
#X obj 27 28 cnv 1 540 1 empty empty empty 20 12 0 14 -1 -66577 0;
#X obj 46 69 osc~;
#X obj 46 99 output~;
#X floatatom 46 39 5 0 0 0 - - -;
#X text 182 73 The same goes for the modulation of frequencies. You
can change them in several ways. First of all manually.;
#X obj 27 148 cnv 1 540 1 empty empty empty 20 12 0 14 -1 -66577 0
;
#X obj 46 221 osc~;
#X obj 46 251 output~;
#X obj 46 191 line~;
#X msg 46 163 880 \, 110 2000;
#X text 184 212 Or you can use the [line~] again \, to start predefined
(or dynamically created) frequency ramps.;
#X obj 27 300 cnv 1 540 1 empty empty empty 20 12 0 14 -1 -66577 0
;
#X obj 46 448 osc~;
#X obj 46 478 output~;
#X obj 46 358 osc~ 1;
#X obj 46 388 *~ 200;
#X obj 46 418 +~ 500;
#X text 182 366 Of course \, you can also take the output of one signal
generator to controll the speed of another. Then some scaling has to
be applied \, so that we produce frequencies that are audible/desired.
Here we scale the oscillator to move from -200 to +200 and then add
an constant offset of 500 So we have values between 300 and 700 We
feed them into our sound-generating [osc~] \, which interprets it as
frequencies.;
#X obj 27 537 cnv 1 540 1 empty empty empty 20 12 0 14 -1 -66577 0
;
#X obj 46 648 osc~;
#X obj 46 678 output~;
#X obj 46 618 +~ 500;
#X obj 46 558 adc~ 1;
#X obj 46 588 *~ 2000;
#X obj 27 737 cnv 1 540 1 empty empty empty 20 12 0 14 -1 -66577 0
;
#X floatatom 46 327 5 0 0 0 - - -;
#X text 82 326 drag here;
#X text 134 163 click;
#X text 82 39 drag here;
#X text 184 609 Again \, you can use any source of values to control
the [osc~]. Even your microphone input. The scaling needs to be adjusted
to the properties of the input.;
#X connect 1 0 2 0;
#X connect 1 0 2 1;
#X connect 3 0 1 0;
#X connect 6 0 7 0;
#X connect 6 0 7 1;
#X connect 8 0 6 0;
#X connect 9 0 8 0;
#X connect 12 0 13 0;
#X connect 12 0 13 1;
#X connect 14 0 15 0;
#X connect 15 0 16 0;
#X connect 16 0 12 0;
#X connect 19 0 20 0;
#X connect 19 0 20 1;
#X connect 21 0 19 0;
#X connect 22 0 23 0;
#X connect 23 0 21 0;
#X connect 25 0 14 0;
