#N canvas 0 0 792 666 10;
#N canvas 287 468 499 396 poll 0;
#X obj 106 27 inlet;
#X obj 106 170 outlet;
#X obj 106 78 mapping/resample 1000;
#X obj 229 50 inlet;
#X connect 0 0 2 0;
#X connect 2 0 1 0;
#X connect 3 0 2 1;
#X restore 155 443 pd poll;
#X obj 155 51 inlet;
#X obj 155 313 spigot;
#X obj 188 296 tgl 15 0 empty empty empty 17 7 0 10 -262144 -1 -1 0
1;
#X msg 215 279 0;
#X msg 188 252 1;
#X obj 215 313 spigot;
#X obj 248 296 tgl 15 0 empty empty empty 17 7 0 10 -262144 -1 -1 0
1;
#X msg 275 279 0;
#X msg 248 252 1;
#X obj 275 313 spigot;
#X obj 308 296 tgl 15 0 empty empty empty 17 7 0 10 -262144 -1 -1 0
1;
#X msg 335 279 0;
#X msg 308 252 1;
#X obj 335 313 spigot;
#X obj 368 296 tgl 15 0 empty empty empty 17 7 0 10 -262144 -1 -1 0
1;
#X msg 395 279 0;
#X msg 368 252 1;
#X obj 395 313 spigot;
#X obj 428 296 tgl 15 0 empty empty empty 17 7 0 10 -262144 -1 -1 0
1;
#X msg 455 279 0;
#X msg 428 252 1;
#X obj 455 313 spigot;
#X obj 488 296 tgl 15 0 empty empty empty 17 7 0 10 -262144 -1 -1 0
1;
#X msg 515 279 0;
#X msg 488 252 1;
#X obj 155 87 route analog;
#X obj 155 127 route 0 1 2 3 4 5;
#X obj 188 192 sel 0;
#X obj 248 192 sel 1;
#X obj 308 192 sel 2;
#X obj 368 192 sel 3;
#X obj 428 192 sel 4;
#X obj 488 192 sel 5;
#X obj 155 495 outlet;
#X obj 309 426 inlet;
#X floatatom 488 85 5 0 5 0 - - -;
#X obj 301 67 cnv 15 48 20 empty empty empty 15 11 0 14 -191407 -1
0;
#X obj 301 43 cnv 15 48 23 empty empty a-In 7 13 0 14 -33289 -228856
0;
#X obj 308 68 nbx 2 17 0 5 0 0 \$0-fakein \$0-fakeout empty 0 -8 0
12 -262144 -1 -1 0 256;
#X obj 301 43 cnv 1 48 1 empty empty empty 20 12 0 14 -258113 -66577
0;
#X obj 301 66 cnv 1 48 1 empty empty empty 20 12 0 14 -258113 -66577
0;
#X obj 485 51 inlet;
#X connect 0 0 34 0;
#X connect 1 0 26 0;
#X connect 2 0 0 0;
#X connect 3 0 2 1;
#X connect 4 0 3 0;
#X connect 5 0 3 0;
#X connect 6 0 0 0;
#X connect 7 0 6 1;
#X connect 8 0 7 0;
#X connect 9 0 7 0;
#X connect 10 0 0 0;
#X connect 11 0 10 1;
#X connect 12 0 11 0;
#X connect 13 0 11 0;
#X connect 14 0 0 0;
#X connect 15 0 14 1;
#X connect 16 0 15 0;
#X connect 17 0 15 0;
#X connect 18 0 0 0;
#X connect 19 0 18 1;
#X connect 20 0 19 0;
#X connect 21 0 19 0;
#X connect 22 0 0 0;
#X connect 23 0 22 1;
#X connect 24 0 23 0;
#X connect 25 0 23 0;
#X connect 26 0 27 0;
#X connect 27 0 2 0;
#X connect 27 1 6 0;
#X connect 27 2 10 0;
#X connect 27 3 14 0;
#X connect 27 4 18 0;
#X connect 27 5 22 0;
#X connect 28 0 5 0;
#X connect 28 1 4 0;
#X connect 29 0 9 0;
#X connect 29 1 8 0;
#X connect 30 0 13 0;
#X connect 30 1 12 0;
#X connect 31 0 17 0;
#X connect 31 1 16 0;
#X connect 32 0 21 0;
#X connect 32 1 20 0;
#X connect 33 0 25 0;
#X connect 33 1 24 0;
#X connect 35 0 0 1;
#X connect 36 0 28 0;
#X connect 36 0 29 0;
#X connect 36 0 30 0;
#X connect 36 0 31 0;
#X connect 36 0 32 0;
#X connect 36 0 33 0;
#X connect 39 0 36 0;
#X connect 42 0 39 0;
#X coords 0 -1 1 1 50 50 2 300 40;
