#N canvas 83 260 988 617 10;
#X obj 115 54 route digital;
#X obj 115 18 inlet;
#X obj 154 562 outlet;
#X obj 154 380 spigot;
#X obj 187 363 tgl 15 0 empty empty empty 17 7 0 10 -262144 -1 -1 0
1;
#X obj 787 44 nbx 5 14 2 13 0 0 empty empty empty 0 -8 0 10 -262144
-1 -1 7 256;
#X msg 214 346 0;
#X obj 187 259 sel 2;
#X msg 187 319 1;
#X obj 214 380 spigot;
#X obj 247 363 tgl 15 0 empty empty empty 17 7 0 10 -262144 -1 -1 0
1;
#X msg 274 346 0;
#X msg 247 319 1;
#X obj 274 380 spigot;
#X obj 307 363 tgl 15 0 empty empty empty 17 7 0 10 -262144 -1 -1 0
1;
#X msg 334 346 0;
#X msg 307 319 1;
#X obj 334 380 spigot;
#X obj 367 363 tgl 15 0 empty empty empty 17 7 0 10 -262144 -1 -1 0
1;
#X msg 394 346 0;
#X msg 367 319 1;
#X obj 394 380 spigot;
#X obj 427 363 tgl 15 0 empty empty empty 17 7 0 10 -262144 -1 -1 0
1;
#X msg 454 346 0;
#X msg 427 319 1;
#X obj 247 259 sel 3;
#X obj 307 259 sel 4;
#X obj 367 259 sel 5;
#X obj 427 259 sel 6;
#X obj 154 194 route 2 3 4 5 6 7 8 9 10 11 12 13;
#X obj 454 380 spigot;
#X obj 487 363 tgl 15 0 empty empty empty 17 7 0 10 -262144 -1 -1 1
1;
#X msg 514 346 0;
#X msg 487 319 1;
#X obj 514 380 spigot;
#X obj 547 363 tgl 15 0 empty empty empty 17 7 0 10 -262144 -1 -1 0
1;
#X msg 574 346 0;
#X msg 547 319 1;
#X obj 574 380 spigot;
#X obj 607 363 tgl 15 0 empty empty empty 17 7 0 10 -262144 -1 -1 0
1;
#X msg 634 346 0;
#X msg 607 319 1;
#X obj 634 380 spigot;
#X obj 667 363 tgl 15 0 empty empty empty 17 7 0 10 -262144 -1 -1 0
1;
#X msg 694 346 0;
#X msg 667 319 1;
#X obj 694 380 spigot;
#X obj 727 363 tgl 15 0 empty empty empty 17 7 0 10 -262144 -1 -1 0
1;
#X msg 754 346 0;
#X msg 727 319 1;
#X obj 487 259 sel 7;
#X obj 547 259 sel 8;
#X obj 607 259 sel 9;
#X obj 667 259 sel 10;
#X obj 727 259 sel 11;
#X obj 754 380 spigot;
#X obj 787 363 tgl 15 0 empty empty empty 17 7 0 10 -262144 -1 -1 0
1;
#X msg 814 346 0;
#X msg 787 319 1;
#X obj 814 380 spigot;
#X obj 847 363 tgl 15 0 empty empty empty 17 7 0 10 -262144 -1 -1 0
1;
#X msg 874 346 0;
#X msg 847 319 1;
#X obj 787 259 sel 12;
#X obj 847 259 sel 13;
#X obj 501 26 cnv 15 48 20 empty empty empty 15 11 0 14 -191407 -1
0;
#X obj 501 2 cnv 15 48 23 empty empty d-In 7 13 0 14 -33289 -228856
0;
#X obj 508 27 nbx 2 17 2 13 0 0 \$0-fakein \$0-fakeout empty 0 -8 0
12 -262144 -1 -1 7 256;
#X obj 610 10 inlet;
#X obj 501 2 cnv 1 48 1 empty empty empty 20 12 0 14 -260097 -66577
0;
#X obj 501 25 cnv 1 48 1 empty empty empty 20 12 0 14 -260097 -66577
0;
#X obj 154 160 spigot;
#X msg 105 125 1;
#X msg 134 117 0;
#X obj 115 91 t b b a;
#X obj 50 108 del 2;
#X connect 0 0 74 0;
#X connect 1 0 0 0;
#X connect 3 0 2 0;
#X connect 4 0 3 1;
#X connect 5 0 7 0;
#X connect 5 0 25 0;
#X connect 5 0 26 0;
#X connect 5 0 27 0;
#X connect 5 0 28 0;
#X connect 5 0 50 0;
#X connect 5 0 51 0;
#X connect 5 0 52 0;
#X connect 5 0 53 0;
#X connect 5 0 54 0;
#X connect 5 0 63 0;
#X connect 5 0 64 0;
#X connect 6 0 4 0;
#X connect 7 0 8 0;
#X connect 7 1 6 0;
#X connect 8 0 4 0;
#X connect 9 0 2 0;
#X connect 10 0 9 1;
#X connect 11 0 10 0;
#X connect 12 0 10 0;
#X connect 13 0 2 0;
#X connect 14 0 13 1;
#X connect 15 0 14 0;
#X connect 16 0 14 0;
#X connect 17 0 2 0;
#X connect 18 0 17 1;
#X connect 19 0 18 0;
#X connect 20 0 18 0;
#X connect 21 0 2 0;
#X connect 22 0 21 1;
#X connect 23 0 22 0;
#X connect 24 0 22 0;
#X connect 25 0 12 0;
#X connect 25 1 11 0;
#X connect 26 0 16 0;
#X connect 26 1 15 0;
#X connect 27 0 20 0;
#X connect 27 1 19 0;
#X connect 28 0 24 0;
#X connect 28 1 23 0;
#X connect 29 0 3 0;
#X connect 29 1 9 0;
#X connect 29 2 13 0;
#X connect 29 3 17 0;
#X connect 29 4 21 0;
#X connect 29 5 30 0;
#X connect 29 6 34 0;
#X connect 29 7 38 0;
#X connect 29 8 42 0;
#X connect 29 9 46 0;
#X connect 29 10 55 0;
#X connect 29 11 59 0;
#X connect 30 0 2 0;
#X connect 31 0 30 1;
#X connect 32 0 31 0;
#X connect 33 0 31 0;
#X connect 34 0 2 0;
#X connect 35 0 34 1;
#X connect 36 0 35 0;
#X connect 37 0 35 0;
#X connect 38 0 2 0;
#X connect 39 0 38 1;
#X connect 40 0 39 0;
#X connect 41 0 39 0;
#X connect 42 0 2 0;
#X connect 43 0 42 1;
#X connect 44 0 43 0;
#X connect 45 0 43 0;
#X connect 46 0 2 0;
#X connect 47 0 46 1;
#X connect 48 0 47 0;
#X connect 49 0 47 0;
#X connect 50 0 33 0;
#X connect 50 1 32 0;
#X connect 51 0 37 0;
#X connect 51 1 36 0;
#X connect 52 0 41 0;
#X connect 52 1 40 0;
#X connect 53 0 45 0;
#X connect 53 1 44 0;
#X connect 54 0 49 0;
#X connect 54 1 48 0;
#X connect 55 0 2 0;
#X connect 56 0 55 1;
#X connect 57 0 56 0;
#X connect 58 0 56 0;
#X connect 59 0 2 0;
#X connect 60 0 59 1;
#X connect 61 0 60 0;
#X connect 62 0 60 0;
#X connect 63 0 58 0;
#X connect 63 1 57 0;
#X connect 64 0 62 0;
#X connect 64 1 61 0;
#X connect 67 0 5 0;
#X connect 68 0 67 0;
#X connect 71 0 29 0;
#X connect 72 0 71 1;
#X connect 73 0 71 1;
#X connect 74 0 75 0;
#X connect 74 1 73 0;
#X connect 74 2 71 0;
#X connect 75 0 72 0;
#X coords 0 -1 1 1 50 50 2 500 -1;
