#N canvas 88 50 760 479 10;
#N canvas 0 0 1097 300 digital 0;
#X obj 32 115 tgl 15 0 empty empty empty 17 7 0 10 -262144 -1 -1 0
1;
#X msg 32 132 digital 2 \$1;
#X obj 32 64 inlet;
#X obj 112 115 tgl 15 0 empty empty empty 17 7 0 10 -262144 -1 -1 0
1;
#X obj 112 64 inlet;
#X msg 112 132 digital 3 \$1;
#X obj 192 115 tgl 15 0 empty empty empty 17 7 0 10 -262144 -1 -1 0
1;
#X obj 192 64 inlet;
#X obj 272 115 tgl 15 0 empty empty empty 17 7 0 10 -262144 -1 -1 0
1;
#X obj 272 64 inlet;
#X msg 192 132 digital 4 \$1;
#X msg 272 132 digital 5 \$1;
#X obj 352 115 tgl 15 0 empty empty empty 17 7 0 10 -262144 -1 -1 0
1;
#X obj 352 64 inlet;
#X obj 432 115 tgl 15 0 empty empty empty 17 7 0 10 -262144 -1 -1 0
1;
#X obj 432 64 inlet;
#X obj 512 115 tgl 15 0 empty empty empty 17 7 0 10 -262144 -1 -1 0
1;
#X obj 512 64 inlet;
#X obj 592 115 tgl 15 0 empty empty empty 17 7 0 10 -262144 -1 -1 0
1;
#X obj 592 64 inlet;
#X msg 352 132 digital 6 \$1;
#X msg 432 132 digital 7 \$1;
#X msg 512 132 digital 8 \$1;
#X msg 592 132 digital 9 \$1;
#X obj 672 115 tgl 15 0 empty empty empty 17 7 0 10 -262144 -1 -1 0
1;
#X obj 672 64 inlet;
#X obj 752 115 tgl 15 0 empty empty empty 17 7 0 10 -262144 -1 -1 0
1;
#X obj 752 64 inlet;
#X obj 832 115 tgl 15 0 empty empty empty 17 7 0 10 -262144 -1 -1 0
1;
#X obj 832 64 inlet;
#X obj 912 115 tgl 15 0 empty empty empty 17 7 0 10 -262144 -1 -1 0
1;
#X obj 912 64 inlet;
#X msg 672 132 digital 10 \$1;
#X msg 752 132 digital 11 \$1;
#X msg 832 132 digital 12 \$1;
#X msg 912 132 digital 13 \$1;
#X obj 437 252 outlet;
#X connect 0 0 1 0;
#X connect 1 0 36 0;
#X connect 2 0 0 0;
#X connect 3 0 5 0;
#X connect 4 0 3 0;
#X connect 5 0 36 0;
#X connect 6 0 10 0;
#X connect 7 0 6 0;
#X connect 8 0 11 0;
#X connect 9 0 8 0;
#X connect 10 0 36 0;
#X connect 11 0 36 0;
#X connect 12 0 20 0;
#X connect 13 0 12 0;
#X connect 14 0 21 0;
#X connect 15 0 14 0;
#X connect 16 0 22 0;
#X connect 17 0 16 0;
#X connect 18 0 23 0;
#X connect 19 0 18 0;
#X connect 20 0 36 0;
#X connect 21 0 36 0;
#X connect 22 0 36 0;
#X connect 23 0 36 0;
#X connect 24 0 32 0;
#X connect 25 0 24 0;
#X connect 26 0 33 0;
#X connect 27 0 26 0;
#X connect 28 0 34 0;
#X connect 29 0 28 0;
#X connect 30 0 35 0;
#X connect 31 0 30 0;
#X connect 32 0 36 0;
#X connect 33 0 36 0;
#X connect 34 0 36 0;
#X connect 35 0 36 0;
#X restore -127 411 pd digital 0/1 ---------------------------;
#X obj 101 134 cnv 20 20 240 empty empty empty 20 12 0 14 -228856 -66577
0;
#X obj 122 134 hradio 20 1 0 2 empty empty 2 -12 10 0 10 -191407 -1
-1 0;
#X obj 122 154 hradio 20 1 0 2 empty empty 3 -12 10 0 10 -191407 -1
-1 0;
#X obj 122 174 hradio 20 1 0 2 empty empty 4 -12 10 0 10 -191407 -1
-1 0;
#X obj 122 194 hradio 20 1 0 2 empty empty 5 -12 10 0 10 -191407 -1
-1 0;
#X obj 122 214 hradio 20 1 0 2 empty empty 6 -12 10 0 10 -191407 -1
-1 0;
#X obj 122 234 hradio 20 1 0 2 empty empty 7 -12 10 0 10 -191407 -1
-1 0;
#X obj 122 254 hradio 20 1 0 2 empty empty 8 -12 10 0 10 -191407 -1
-1 0;
#X obj 122 274 hradio 20 1 0 2 empty empty 9 -12 10 0 10 -191407 -1
-1 0;
#X obj 122 294 hradio 20 1 0 2 empty empty 10 -17 10 0 10 -191407 -1
-1 0;
#X obj 122 314 hradio 20 1 0 2 empty empty 11 -17 10 0 10 -191407 -1
-1 0;
#X obj 122 334 hradio 20 1 0 2 empty empty 12 -17 10 0 10 -191407 -1
-1 0;
#X obj 122 354 hradio 20 1 0 2 empty empty 13 -17 10 0 10 -191407 -1
-1 0;
#X obj 101 113 cnv 20 61 20 empty empty on/off 23 12 0 10 -228856 -1
0;
#X obj -127 457 outlet;
#X obj -79 51 inlet;
#X obj -69 71 inlet;
#X obj -59 91 inlet;
#X obj -49 111 inlet;
#X obj -39 131 inlet;
#X obj -29 151 inlet;
#X obj -19 171 inlet;
#X obj -9 191 inlet;
#X obj 1 211 inlet;
#X obj 11 231 inlet;
#X obj -99 11 inlet;
#X obj -89 31 inlet;
#X obj 163 113 cnv 15 133 261 empty empty empty 20 12 0 14 -228856
-66577 0;
#X obj 166 154 hsl 128 20 0 1 0 0 empty empty empty -2 -8 0 10 -162280
-1 -1 11900 1;
#X obj 101 103 cnv 10 195 10 empty empty empty 20 12 0 14 -262130 -66577
0;
#X text 115 100 3;
#X text 132 100 4;
#X text 150 100 5;
#X text 167 100 6;
#X text 184 100 7;
#X text 201 100 8;
#X text 219 100 9;
#X text 234 100 10;
#X text 251 100 11;
#X text 268 100 12;
#X obj 101 115 cnv 1 195 1 empty empty empty 20 12 0 14 -1 -66577 0
;
#N canvas 0 0 450 300 pwm-------------------- 0;
#X obj 58 54 inlet;
#X obj 58 180 outlet;
#X msg 58 104 pwm 3 \$1;
#X obj 118 54 inlet;
#X obj 178 54 inlet;
#X obj 238 54 inlet;
#X obj 298 54 inlet;
#X obj 358 54 inlet;
#X msg 118 104 pwm 5 \$1;
#X msg 178 104 pwm 6 \$1;
#X msg 238 104 pwm 9 \$1;
#X msg 298 104 pwm 10 \$1;
#X msg 358 104 pwm 11 \$1;
#X connect 0 0 2 0;
#X connect 2 0 1 0;
#X connect 3 0 8 0;
#X connect 4 0 9 0;
#X connect 5 0 10 0;
#X connect 6 0 11 0;
#X connect 7 0 12 0;
#X connect 8 0 1 0;
#X connect 9 0 1 0;
#X connect 10 0 1 0;
#X connect 11 0 1 0;
#X connect 12 0 1 0;
#X restore 163 419 pd pwm--------------------;
#X obj 163 451 outlet;
#X obj 166 194 hsl 128 20 0 1 0 0 empty empty empty -2 -8 0 10 -162280
-1 -1 11900 1;
#X obj 166 214 hsl 128 20 0 1 0 0 empty empty empty -2 -8 0 10 -162280
-1 -1 11900 1;
#X obj 166 274 hsl 128 20 0 1 0 0 empty empty empty -2 -8 0 10 -162280
-1 -1 0 1;
#X obj 166 294 hsl 128 20 0 1 0 0 empty empty empty -2 -8 0 10 -162280
-1 -1 0 1;
#X obj 166 314 hsl 128 20 0 1 0 0 empty empty empty -2 -8 0 10 -162280
-1 -1 0 1;
#X connect 0 0 15 0;
#X connect 2 0 0 0;
#X connect 3 0 0 1;
#X connect 4 0 0 2;
#X connect 5 0 0 3;
#X connect 6 0 0 4;
#X connect 7 0 0 5;
#X connect 8 0 0 6;
#X connect 9 0 0 7;
#X connect 10 0 0 8;
#X connect 11 0 0 9;
#X connect 12 0 0 10;
#X connect 13 0 0 11;
#X connect 16 0 4 0;
#X connect 17 0 44 0;
#X connect 18 0 45 0;
#X connect 19 0 7 0;
#X connect 20 0 8 0;
#X connect 21 0 46 0;
#X connect 22 0 47 0;
#X connect 23 0 48 0;
#X connect 24 0 12 0;
#X connect 25 0 13 0;
#X connect 26 0 2 0;
#X connect 27 0 29 0;
#X connect 29 0 3 0;
#X connect 29 0 42 0;
#X connect 42 0 43 0;
#X connect 44 0 5 0;
#X connect 44 0 42 1;
#X connect 45 0 42 2;
#X connect 45 0 6 0;
#X connect 46 0 42 3;
#X connect 46 0 9 0;
#X connect 47 0 10 0;
#X connect 47 0 42 4;
#X connect 48 0 11 0;
#X connect 48 0 42 5;
#X coords 0 -1 1 1 197 275 2 100 100;
