#N canvas 47 0 1105 788 10;
#X obj 54 444 digout;
#X obj 54 332 tgl 15 0 empty empty empty 17 7 0 10 -262144 -1 -1 1
1;
#X obj 104 444 digout;
#X obj 104 332 tgl 15 0 empty empty empty 17 7 0 10 -262144 -1 -1 1
1;
#X obj 154 444 digout;
#X obj 154 332 tgl 15 0 empty empty empty 17 7 0 10 -262144 -1 -1 1
1;
#X obj 204 444 digout;
#X obj 204 332 tgl 15 0 empty empty empty 17 7 0 10 -262144 -1 -1 0
1;
#X obj 54 296 r \$0-oo;
#X obj 104 296 r \$0-ol;
#X obj 154 296 r \$0-or;
#X obj 204 296 r \$0-mm;
#X obj 254 444 digout;
#X obj 254 332 tgl 15 0 empty empty empty 17 7 0 10 -262144 -1 -1 0
1;
#X obj 304 444 digout;
#X obj 304 332 tgl 15 0 empty empty empty 17 7 0 10 -262144 -1 -1 1
1;
#X obj 354 444 digout;
#X obj 354 332 tgl 15 0 empty empty empty 17 7 0 10 -262144 -1 -1 1
1;
#X obj 404 444 digout;
#X obj 404 332 tgl 15 0 empty empty empty 17 7 0 10 -262144 -1 -1 0
1;
#X obj 254 296 r \$0-ul;
#X obj 304 296 r \$0-ur;
#X obj 354 296 r \$0-uu;
#X obj 404 296 r \$0-pp;
#X obj 601 253 cnv 15 80 90 empty empty empty 20 12 0 14 -1 -66577
0;
#X obj 631 263 bng 10 250 50 0 \$0-oo empty empty 17 7 0 10 -1 -1 -1
;
#X obj 641 263 bng 10 250 50 0 \$0-oo empty empty 17 7 0 10 -1 -1 -1
;
#X obj 631 263 cnv 10 20 10 empty c_oo empty 20 12 0 14 -258699 -262144
0;
#X obj 621 273 bng 10 250 50 0 \$0-ol empty empty 17 7 0 10 -1 -1 -1
;
#X obj 621 283 bng 10 250 50 0 \$0-ol empty empty 17 7 0 10 -1 -1 -1
;
#X obj 621 273 cnv 10 10 20 empty c_ol empty 20 12 0 14 -258699 -262144
0;
#X obj 651 273 bng 10 250 50 0 \$0-or empty empty 17 7 0 10 -1 -1 -1
;
#X obj 651 283 bng 10 250 50 0 \$0-or empty empty 17 7 0 10 -1 -1 -1
;
#X obj 651 273 cnv 10 10 20 empty c_or empty 20 12 0 14 -258699 -262144
0;
#X obj 641 293 bng 10 250 50 0 \$0-mm empty empty 17 7 0 10 -1 -1 -1
;
#X obj 631 293 bng 10 250 50 0 \$0-mm empty empty 17 7 0 10 -1 -1 -1
;
#X obj 631 293 cnv 10 20 10 empty c_mm empty 20 12 0 14 -166441 -262144
0;
#X obj 621 303 bng 10 250 50 0 \$0-ul empty empty 17 7 0 10 -1 -1 -1
;
#X obj 621 313 bng 10 250 50 0 \$0-ul empty empty 17 7 0 10 -1 -1 -1
;
#X obj 631 323 bng 10 250 50 0 \$0-uu empty empty 17 7 0 10 -1 -1 -1
;
#X obj 641 323 bng 10 250 50 0 \$0-uu empty empty 17 7 0 10 -1 -1 -1
;
#X obj 651 313 bng 10 250 50 0 \$0-ur empty empty 17 7 0 10 -1 -1 -1
;
#X obj 651 303 bng 10 250 50 0 \$0-ur empty empty 17 7 0 10 -1 -1 -1
;
#X obj 661 323 bng 10 250 50 0 \$0-pp empty empty 17 7 0 10 -1 -1 -1
;
#X obj 621 303 cnv 10 10 20 empty c_ul empty 20 12 0 14 -166441 -262144
0;
#X obj 651 303 cnv 10 10 20 empty c_ur empty 20 12 0 14 -258699 -262144
0;
#X obj 631 323 cnv 10 20 10 empty c_uu empty 20 12 0 14 -258699 -262144
0;
#X obj 661 323 cnv 10 10 10 empty c_pp empty 20 12 0 14 -166441 -262144
0;
#X msg 97 97 3;
#X msg 147 97 4;
#X msg 197 97 2;
#X msg 247 97 7;
#X msg 297 97 9;
#X msg 347 97 6;
#X msg 397 97 8;
#X msg 447 97 5;
#X obj 97 49 loadbang;
#N canvas 267 40 551 483 colorswitches 0;
#X msg -79 143 13;
#X msg -52 143 1;
#X obj -79 74 tgl 15 0 empty empty empty 17 7 0 10 -262144 -1 -1 1
1;
#X obj -79 107 sel 1;
#X msg 11 143 13;
#X msg 38 143 1;
#X obj 11 74 tgl 15 0 empty empty empty 17 7 0 10 -262144 -1 -1 1 1
;
#X obj 11 107 sel 1;
#X obj 11 36 r \$0-ol;
#X obj -79 36 r \$0-oo;
#X msg -79 185 \; c_oo color \$1;
#X msg 11 185 \; c_ol color \$1;
#X msg 101 143 13;
#X msg 128 143 1;
#X obj 101 74 tgl 15 0 empty empty empty 17 7 0 10 -262144 -1 -1 1
1;
#X obj 101 107 sel 1;
#X obj 101 36 r \$0-or;
#X msg 101 185 \; c_or color \$1;
#X msg 191 143 13;
#X msg 218 143 1;
#X obj 191 74 tgl 15 0 empty empty empty 17 7 0 10 -262144 -1 -1 0
1;
#X obj 191 107 sel 1;
#X obj 191 36 r \$0-mm;
#X msg 191 185 \; c_mm color \$1;
#X msg -79 343 13;
#X msg -52 343 1;
#X obj -79 274 tgl 15 0 empty empty empty 17 7 0 10 -262144 -1 -1 0
1;
#X obj -79 307 sel 1;
#X obj -79 236 r \$0-ul;
#X msg -79 385 \; c_ul color \$1;
#X msg 11 343 13;
#X msg 38 343 1;
#X obj 11 274 tgl 15 0 empty empty empty 17 7 0 10 -262144 -1 -1 1
1;
#X obj 11 307 sel 1;
#X obj 11 236 r \$0-ur;
#X msg 11 385 \; c_ur color \$1;
#X msg 101 343 13;
#X msg 128 343 1;
#X obj 101 274 tgl 15 0 empty empty empty 17 7 0 10 -262144 -1 -1 1
1;
#X obj 101 307 sel 1;
#X obj 101 236 r \$0-uu;
#X msg 101 385 \; c_uu color \$1;
#X msg 191 343 13;
#X msg 218 343 1;
#X obj 191 274 tgl 15 0 empty empty empty 17 7 0 10 -262144 -1 -1 0
1;
#X obj 191 307 sel 1;
#X obj 191 236 r \$0-pp;
#X msg 191 385 \; c_pp color \$1;
#X connect 0 0 10 0;
#X connect 1 0 10 0;
#X connect 2 0 3 0;
#X connect 3 0 0 0;
#X connect 3 1 1 0;
#X connect 4 0 11 0;
#X connect 5 0 11 0;
#X connect 6 0 7 0;
#X connect 7 0 4 0;
#X connect 7 1 5 0;
#X connect 8 0 6 0;
#X connect 9 0 2 0;
#X connect 12 0 17 0;
#X connect 13 0 17 0;
#X connect 14 0 15 0;
#X connect 15 0 12 0;
#X connect 15 1 13 0;
#X connect 16 0 14 0;
#X connect 18 0 23 0;
#X connect 19 0 23 0;
#X connect 20 0 21 0;
#X connect 21 0 18 0;
#X connect 21 1 19 0;
#X connect 22 0 20 0;
#X connect 24 0 29 0;
#X connect 25 0 29 0;
#X connect 26 0 27 0;
#X connect 27 0 24 0;
#X connect 27 1 25 0;
#X connect 28 0 26 0;
#X connect 30 0 35 0;
#X connect 31 0 35 0;
#X connect 32 0 33 0;
#X connect 33 0 30 0;
#X connect 33 1 31 0;
#X connect 34 0 32 0;
#X connect 36 0 41 0;
#X connect 37 0 41 0;
#X connect 38 0 39 0;
#X connect 39 0 36 0;
#X connect 39 1 37 0;
#X connect 40 0 38 0;
#X connect 42 0 47 0;
#X connect 43 0 47 0;
#X connect 44 0 45 0;
#X connect 45 0 42 0;
#X connect 45 1 43 0;
#X connect 46 0 44 0;
#X restore 604 231 pd colorswitches;
#X obj 54 534 outlet;
#X obj 74 416 s \$0-oo;
#X obj 124 416 s \$0-ol;
#X obj 174 416 s \$0-or;
#X obj 224 416 s \$0-mm;
#X obj 274 416 s \$0-ul;
#X obj 324 416 s \$0-ur;
#X obj 374 416 s \$0-uu;
#X obj 424 416 s \$0-pp;
#X obj 317 228 route 3 4 2 7 9 6 8 5;
#X obj 178 183 inlet;
#X obj 54 228 route oo ol or mm ul ur uu pp;
#N canvas 199 139 717 546 numbers 0;
#X msg 90 160 8 0 \, 9 0 \, 7 0 \, 4 0 \, 3 0 \, 2 1 \, 6 1 \, 5 0
\,;
#X msg 100 180 4 0 \, 6 0 \, 3 1 \, 2 1 \, 7 1 \, 9 1 \, 8 1 \, 5 0
\,;
#X msg 110 200 4 0 \, 9 0 \, 3 1 \, 2 1 \, 7 1 \, 6 1 \, 8 1 \, 5 0
\,;
#X msg 120 220 4 1 \, 7 1 \, 2 1 \, 6 1 \, 3 0 \, 9 0 \, 8 0 \, 5 0
\,;
#X msg 130 240 3 1 \, 4 1 \, 7 1 \, 6 1 \, 8 1 \, 2 0 \, 9 0 \, 5 0
\,;
#X msg 140 260 3 1 \, 4 1 \, 9 1 \, 8 1 \, 6 1 \, 7 1 \, 2 0 \, 5 0
\,;
#X msg 150 280 3 1 \, 2 1 \, 6 1 \, 8 0 \, 9 0 \, 7 0 \, 4 0 \, 5 0
\,;
#X msg 160 300 4 1 \, 3 1 \, 2 1 \, 7 1 \, 9 1 \, 8 1 \, 6 1 \, 5 0
\,;
#X msg 170 320 3 1 \, 4 1 \, 7 1 \, 2 1 \, 6 1 \, 8 1 \, 9 0 \, 5 0
\,;
#X obj 90 107 sel 1 2 3 4 5 6 7 8 9;
#X obj 90 393 outlet;
#X obj 90 65 inlet;
#X connect 0 0 10 0;
#X connect 1 0 10 0;
#X connect 2 0 10 0;
#X connect 3 0 10 0;
#X connect 4 0 10 0;
#X connect 5 0 10 0;
#X connect 6 0 10 0;
#X connect 7 0 10 0;
#X connect 8 0 10 0;
#X connect 9 0 0 0;
#X connect 9 1 1 0;
#X connect 9 2 2 0;
#X connect 9 3 3 0;
#X connect 9 4 4 0;
#X connect 9 5 5 0;
#X connect 9 6 6 0;
#X connect 9 7 7 0;
#X connect 9 8 8 0;
#X connect 11 0 9 0;
#X restore 604 211 pd numbers;
#X obj 604 177 inlet;
#X connect 0 0 58 0;
#X connect 1 0 0 0;
#X connect 2 0 58 0;
#X connect 3 0 2 0;
#X connect 4 0 58 0;
#X connect 5 0 4 0;
#X connect 6 0 58 0;
#X connect 7 0 6 0;
#X connect 8 0 1 0;
#X connect 9 0 3 0;
#X connect 10 0 5 0;
#X connect 11 0 7 0;
#X connect 12 0 58 0;
#X connect 13 0 12 0;
#X connect 14 0 58 0;
#X connect 15 0 14 0;
#X connect 16 0 58 0;
#X connect 17 0 16 0;
#X connect 18 0 58 0;
#X connect 19 0 18 0;
#X connect 20 0 13 0;
#X connect 21 0 15 0;
#X connect 22 0 17 0;
#X connect 23 0 19 0;
#X connect 48 0 0 1;
#X connect 49 0 2 1;
#X connect 50 0 4 1;
#X connect 51 0 6 1;
#X connect 52 0 12 1;
#X connect 53 0 14 1;
#X connect 54 0 16 1;
#X connect 55 0 18 1;
#X connect 56 0 48 0;
#X connect 56 0 49 0;
#X connect 56 0 50 0;
#X connect 56 0 51 0;
#X connect 56 0 52 0;
#X connect 56 0 53 0;
#X connect 56 0 54 0;
#X connect 56 0 55 0;
#X connect 67 0 0 0;
#X connect 67 0 59 0;
#X connect 67 1 2 0;
#X connect 67 1 60 0;
#X connect 67 2 4 0;
#X connect 67 2 61 0;
#X connect 67 3 62 0;
#X connect 67 3 6 0;
#X connect 67 4 12 0;
#X connect 67 4 63 0;
#X connect 67 5 14 0;
#X connect 67 5 64 0;
#X connect 67 6 16 0;
#X connect 67 6 65 0;
#X connect 67 7 18 0;
#X connect 67 7 66 0;
#X connect 68 0 69 0;
#X connect 68 0 67 0;
#X connect 69 0 0 0;
#X connect 69 0 59 0;
#X connect 69 1 2 0;
#X connect 69 1 60 0;
#X connect 69 2 4 0;
#X connect 69 2 61 0;
#X connect 69 3 6 0;
#X connect 69 3 62 0;
#X connect 69 4 12 0;
#X connect 69 4 63 0;
#X connect 69 5 14 0;
#X connect 69 5 64 0;
#X connect 69 6 16 0;
#X connect 69 6 65 0;
#X connect 69 7 18 0;
#X connect 69 7 66 0;
#X connect 70 0 67 0;
#X connect 71 0 70 0;
#X coords 0 -1 1 1 82 96 2 600 250;
