#N canvas 168 99 778 584 10;
#X obj 259 80 inlet;
#X obj 259 559 outlet;
#X floatatom 358 221 5 0 0 0 - - -;
#X obj 359 111 inlet;
#X msg 259 322 pwm 3 \$1;
#X msg 278 352 pwm 5 \$1;
#X msg 298 382 pwm 6 \$1;
#X msg 318 412 pwm 9 \$1;
#X msg 338 442 pwm 10 \$1;
#X msg 358 472 pwm 11 \$1;
#X obj 101 127 cnv 15 48 20 empty empty empty 15 11 0 14 -191407 -1
0;
#X obj 101 103 cnv 15 48 23 empty empty PWM 12 13 0 14 -33289 -228856
0;
#X obj 110 128 nbx 2 17 3 11 0 1 \$0-fakein \$0-fakeout empty 0 -8
0 12 -262144 -1 -1 6 256;
#X obj 101 103 cnv 1 48 1 empty empty empty 20 12 0 14 -2626 -66577
0;
#X obj 101 126 cnv 1 48 1 empty empty empty 20 12 0 14 -2626 -66577
0;
#X obj 358 145 route 3 5 6 9 10 11;
#X msg 358 184 0;
#X msg 378 184 1;
#X msg 398 184 2;
#X msg 418 184 3;
#X msg 438 184 4;
#X msg 458 184 5;
#X obj 259 240 demux 0 1 2 3 4 5;
#X connect 0 0 22 0;
#X connect 2 0 22 1;
#X connect 3 0 12 0;
#X connect 4 0 1 0;
#X connect 5 0 1 0;
#X connect 6 0 1 0;
#X connect 7 0 1 0;
#X connect 8 0 1 0;
#X connect 9 0 1 0;
#X connect 12 0 15 0;
#X connect 15 0 16 0;
#X connect 15 1 17 0;
#X connect 15 2 18 0;
#X connect 15 3 19 0;
#X connect 15 4 20 0;
#X connect 15 5 21 0;
#X connect 16 0 2 0;
#X connect 17 0 2 0;
#X connect 18 0 2 0;
#X connect 19 0 2 0;
#X connect 20 0 2 0;
#X connect 21 0 2 0;
#X connect 22 0 4 0;
#X connect 22 1 5 0;
#X connect 22 2 6 0;
#X connect 22 3 7 0;
#X connect 22 4 8 0;
#X connect 22 5 9 0;
#X coords 0 -1 1 1 50 50 2 100 100;
