#N canvas 255 39 592 549 10;
#X msg -8 271 pinMode \$1 \$2;
#X obj -8 188 sel 1;
#X msg -8 218 14 analog;
#X msg 19 238 14 input;
#X obj -8 376 outlet;
#X msg 82 271 pinMode \$1 \$2;
#X obj 82 188 sel 1;
#X msg 172 271 pinMode \$1 \$2;
#X obj 172 188 sel 1;
#X msg 262 271 pinMode \$1 \$2;
#X obj 262 188 sel 1;
#X msg 352 271 pinMode \$1 \$2;
#X obj 352 188 sel 1;
#X msg 442 271 pinMode \$1 \$2;
#X obj 442 188 sel 1;
#X msg 82 218 15 analog;
#X msg 109 238 15 input;
#X msg 199 238 16 input;
#X msg 172 218 16 analog;
#X msg 262 218 17 analog;
#X msg 289 238 17 input;
#X msg 352 218 18 analog;
#X msg 379 238 18 input;
#X msg 442 218 19 analog;
#X msg 469 238 19 input;
#X obj 101 102 cnv 15 190 15 empty empty analog-setup 45 9 0 12 -99865
-162280 0;
#X obj 101 119 tgl 30 0 empty empty 0 10 16 0 20 -1 -191407 -228856
0 1;
#X obj 133 119 tgl 30 0 empty empty 1 10 16 0 20 -1 -191407 -228856
0 1;
#X obj 165 119 tgl 30 0 empty empty 2 10 16 0 20 -1 -191407 -228856
0 1;
#X obj 197 119 tgl 30 0 empty empty 3 10 16 0 20 -1 -191407 -228856
0 1;
#X obj 229 119 tgl 30 0 empty empty 4 10 16 0 20 -1 -191407 -228856
0 1;
#X obj 261 119 tgl 30 0 empty empty 5 10 16 0 20 -1 -191407 -228856
0 1;
#X obj 101 118 cnv 1 190 1 empty empty empty 20 12 0 14 -258113 -66577
0;
#X obj 101 101 cnv 1 190 1 empty empty empty 20 12 0 14 -258113 -66577
0;
#X obj 101 65 route 0 1 2 3 4 5;
#X obj 101 13 inlet;
#X connect 0 0 4 0;
#X connect 1 0 2 0;
#X connect 1 1 3 0;
#X connect 2 0 0 0;
#X connect 3 0 0 0;
#X connect 5 0 4 0;
#X connect 6 0 15 0;
#X connect 6 1 16 0;
#X connect 7 0 4 0;
#X connect 8 0 18 0;
#X connect 8 1 17 0;
#X connect 9 0 4 0;
#X connect 10 0 19 0;
#X connect 10 1 20 0;
#X connect 11 0 4 0;
#X connect 12 0 21 0;
#X connect 12 1 22 0;
#X connect 13 0 4 0;
#X connect 14 0 23 0;
#X connect 14 1 24 0;
#X connect 15 0 5 0;
#X connect 16 0 5 0;
#X connect 17 0 7 0;
#X connect 18 0 7 0;
#X connect 19 0 9 0;
#X connect 20 0 9 0;
#X connect 21 0 11 0;
#X connect 22 0 11 0;
#X connect 23 0 13 0;
#X connect 24 0 13 0;
#X connect 26 0 1 0;
#X connect 27 0 6 0;
#X connect 28 0 8 0;
#X connect 29 0 10 0;
#X connect 30 0 12 0;
#X connect 31 0 14 0;
#X connect 34 0 26 0;
#X connect 34 1 27 0;
#X connect 34 2 28 0;
#X connect 34 3 29 0;
#X connect 34 4 30 0;
#X connect 34 5 31 0;
#X connect 35 0 34 0;
#X coords 0 -1 1 1 192 52 2 100 100;
